Coordinates
version=1
nRows=32
nColumns=12
inDegrees=yes

Units are S.I. units (second, meters, Newtons, ...)
Angles are in degrees

endheader
time	SC_y	SC_z	SC_x	AC_y	AC_z	AC_x	GH_y	GH_z	GH_yy	EL_x	PS_y
       0.0              -44.06          9.799           43.3          52.51         -15.86         -16.21          156.7          51.35          61.01          9.705          68.52
   0.01464              -44.06          9.798           43.3          52.51         -15.86         -16.21          156.7          51.35          61.02          9.706          68.53
   0.02928              -44.06          9.796           43.3          52.51         -15.85         -16.21          156.7          51.35          61.02          9.707          68.53
   0.04391              -44.06          9.794           43.3          52.51         -15.85         -16.21          156.7          51.35          61.03          9.708          68.54
   0.05855              -44.06          9.792           43.3          52.51         -15.85         -16.21          156.7          51.35          61.03           9.71          68.55
   0.07319              -44.06          9.789          43.29          52.51         -15.85         -16.21          156.7          51.35          61.04          9.711          68.56
   0.08783              -44.07          9.787          43.29          52.51         -15.84         -16.21          156.7          51.35          61.05          9.713          68.57
    0.1025              -44.07          9.784          43.29          52.51         -15.84         -16.21          156.7          51.36          61.05          9.715          68.58
    0.1171              -44.07          9.782          43.29          52.51         -15.84         -16.21          156.7          51.36          61.06          9.717          68.59
    0.1317              -44.07          9.779          43.29          52.51         -15.83         -16.21          156.7          51.36          61.07          9.719           68.6
    0.1464              -44.07          9.775          43.28          52.51         -15.83         -16.21          156.7          51.36          61.08          9.721          68.62
     0.161              -44.08          9.772          43.28          52.51         -15.83         -16.21          156.7          51.36          61.09          9.723          68.63
    0.1757              -44.08          9.768          43.28          52.52         -15.82         -16.21          156.7          51.36           61.1          9.726          68.65
    0.1903              -44.08          9.764          43.27          52.52         -15.82         -16.21          156.7          51.36          61.11          9.728          68.66
    0.2049              -44.09           9.76          43.27          52.52         -15.81         -16.21          156.7          51.36          61.12          9.731          68.68
    0.2196              -44.09          9.755          43.27          52.52         -15.81         -16.21          156.7          51.36          61.13          9.734           68.7
    0.2342              -44.09           9.75          43.26          52.52          -15.8         -16.21          156.7          51.36          61.15          9.738          68.72
    0.2488               -44.1          9.744          43.26          52.52         -15.79         -16.21          156.7          51.36          61.16          9.742          68.74
    0.2635               -44.1          9.738          43.25          52.53         -15.79         -16.21          156.7          51.37          61.18          9.746          68.77
    0.2781              -44.11          9.731          43.25          52.53         -15.78         -16.21          156.7          51.37           61.2           9.75           68.8
    0.2928              -44.11          9.724          43.24          52.53         -15.77         -16.21          156.7          51.37          61.22          9.755          68.83
    0.3074              -44.12          9.716          43.23          52.53         -15.76         -16.21          156.8          51.37          61.24          9.761          68.86
     0.322              -44.13          9.707          43.23          52.54         -15.75         -16.21          156.8          51.37          61.26          9.767           68.9
    0.3367              -44.13          9.697          43.22          52.54         -15.74         -16.21          156.8          51.37          61.29          9.773          68.94
    0.3513              -44.14          9.686          43.21          52.54         -15.73         -16.21          156.8          51.38          61.32          9.781          68.98
     0.366              -44.15          9.674           43.2          52.55         -15.71         -16.21          156.8          51.38          61.35          9.789          69.03
    0.3806              -44.16           9.66          43.19          52.55          -15.7         -16.21          156.8          51.38          61.39          9.798          69.09
    0.3952              -44.17          9.645          43.17          52.56         -15.68         -16.21          156.8          51.39          61.43          9.809          69.15
    0.4099              -44.19          9.627          43.16          52.56         -15.66         -16.21          156.8          51.39          61.48           9.82          69.22
    0.4245               -44.2          9.607          43.14          52.57         -15.64         -16.21          156.9          51.39          61.53          9.834          69.31
    0.4391              -44.22          9.585          43.12          52.58         -15.61         -16.21          156.9           51.4          61.59          9.849           69.4
    0.4538              -44.24          9.558           43.1          52.59         -15.58         -16.21          156.9          51.41          61.66          9.867           69.5
